<?xml version="1.0" standalone="no"?>
<!DOCTYPE svg PUBLIC "-//W3C//DTD SVG 20010904//EN"
 "http://www.w3.org/TR/2001/REC-SVG-20010904/DTD/svg10.dtd">
<svg version="1.0" xmlns="http://www.w3.org/2000/svg"
 width="315.000000pt" height="315.000000pt" viewBox="0 0 315.000000 315.000000"
 preserveAspectRatio="xMidYMid meet">
<metadata>
Created by potrace 1.11, written by Peter Selinger 2001-2013
</metadata>
<g transform="translate(0.000000,315.000000) scale(0.100000,-0.100000)"
fill="#000000" stroke="none">
<path d="M1370 2880 l0 -100 -200 0 -200 0 0 -100 0 -100 -100 0 -100 0 0
-233 0 -234 -150 -47 c-168 -54 -190 -70 -190 -137 0 -33 24 -75 170 -294
l170 -255 0 -227 0 -227 -47 -48 -47 -47 -78 74 c-73 71 -80 75 -123 75 -43 0
-50 -4 -123 -75 l-78 -74 -59 59 c-33 33 -64 60 -70 60 -6 0 -42 -31 -80 -70
l-69 -70 108 -106 c59 -58 122 -112 139 -119 43 -18 78 -3 143 59 100 98 82
95 157 21 37 -36 83 -73 102 -81 32 -13 39 -13 67 2 17 9 52 37 78 63 93 92
78 90 154 16 109 -108 147 -112 236 -26 26 25 59 56 73 69 l24 23 66 -66 c114
-114 147 -115 260 -3 38 37 70 68 71 68 1 0 32 -29 69 -65 113 -111 147 -113
248 -15 32 32 65 63 73 69 10 9 27 -3 79 -54 109 -108 148 -112 237 -26 26 25
59 56 73 69 l24 23 67 -66 c111 -110 146 -113 242 -21 100 98 82 95 155 23
l63 -64 76 74 75 74 -117 115 c-114 112 -117 114 -162 114 -44 0 -50 -4 -124
-74 l-77 -74 -77 74 c-71 68 -81 74 -119 74 -25 0 -52 -8 -70 -21 l-29 -20 0
220 0 221 170 255 c232 349 232 349 -19 430 l-151 49 0 233 0 233 -100 0 -100
0 0 100 0 100 -200 0 -200 0 0 100 0 100 -205 0 -205 0 0 -100z m610 -400 l0
-100 95 0 95 0 0 -95 c0 -52 -3 -95 -7 -95 -5 0 -138 44 -298 97 l-289 96
-291 -96 c-160 -53 -294 -97 -298 -97 -4 0 -7 43 -7 95 l0 95 95 0 95 0 0 100
0 100 405 0 405 0 0 -100z"/>
<path d="M352 505 l-78 -74 -59 59 c-33 33 -64 60 -70 60 -6 0 -42 -31 -80
-70 l-69 -69 105 -104 c57 -57 119 -111 136 -121 29 -15 36 -15 67 -2 19 8 57
36 84 63 96 94 80 92 156 17 110 -107 146 -111 236 -25 26 25 59 56 73 69 l24
23 67 -66 c116 -114 145 -115 260 -4 l70 69 29 -28 c16 -15 49 -46 73 -68 79
-76 125 -74 208 8 24 24 55 53 68 66 l25 23 67 -66 c115 -114 147 -115 259 -3
38 37 70 68 72 68 2 0 32 -29 68 -65 112 -112 147 -114 251 -13 33 33 66 64
72 69 8 6 32 -11 76 -54 35 -36 78 -72 96 -81 29 -15 35 -15 67 -1 20 8 61 39
91 69 30 30 61 59 68 65 11 9 28 -3 77 -52 l64 -64 75 74 75 74 -117 115
c-114 112 -117 114 -162 114 -44 0 -50 -4 -124 -74 l-77 -74 -77 74 c-73 70
-80 74 -123 74 -43 0 -50 -4 -123 -74 l-77 -74 -77 74 c-73 70 -80 74 -123 74
-43 0 -50 -4 -123 -74 l-77 -74 -77 74 c-110 105 -136 105 -246 0 l-77 -74
-77 74 c-73 70 -80 74 -123 74 -43 0 -50 -4 -123 -74 l-77 -74 -77 74 c-73 70
-80 74 -123 74 -43 0 -50 -4 -123 -74 l-77 -74 -77 74 c-73 70 -80 74 -123 74
-43 0 -50 -4 -123 -75z"/>
</g>
</svg>
